<svg xmlns="http://www.w3.org/2000/svg" viewBox="0 0 1200 800" role="img" aria-labelledby="title desc">
  <title id="title">Sistema de Gestión Médica</title>
  <desc id="desc">Interfaz de un sistema para gestionar pacientes, citas y atención médica.</desc>
  <defs>
    <linearGradient id="bg2" x1="0" x2="1" y1="0" y2="1">
      <stop offset="0%" stop-color="#0ea5e9"/>
      <stop offset="100%" stop-color="#1d4ed8"/>
    </linearGradient>
  </defs>
  <rect width="1200" height="800" fill="#e2e8f0"/>
  <rect x="80" y="90" width="1040" height="620" rx="24" fill="#f8fafc"/>
  <rect x="120" y="130" width="240" height="540" rx="18" fill="url(#bg2)"/>
  <rect x="410" y="130" width="650" height="110" rx="18" fill="#dbeafe"/>
  <rect x="410" y="270" width="650" height="160" rx="18" fill="#eff6ff"/>
  <rect x="410" y="470" width="650" height="140" rx="18" fill="#f1f5f9"/>
  <circle cx="180" cy="210" r="30" fill="#f8fafc"/>
  <rect x="225" y="190" width="90" height="16" rx="8" fill="#f8fafc" opacity="0.8"/>
  <rect x="225" y="220" width="110" height="12" rx="6" fill="#f8fafc" opacity="0.6"/>
  <rect x="450" y="150" width="180" height="18" rx="9" fill="#2563eb" opacity="0.7"/>
  <rect x="450" y="190" width="240" height="14" rx="7" fill="#1e293b" opacity="0.3"/>
  <rect x="460" y="300" width="170" height="28" rx="10" fill="#2563eb"/>
  <rect x="460" y="350" width="540" height="16" rx="8" fill="#1e293b" opacity="0.15"/>
  <rect x="460" y="383" width="470" height="16" rx="8" fill="#1e293b" opacity="0.15"/>
  <rect x="460" y="515" width="200" height="18" rx="9" fill="#0f172a" opacity="0.25"/>
  <rect x="460" y="550" width="500" height="14" rx="7" fill="#0f172a" opacity="0.12"/>
</svg>
